<?xml version="1.0" encoding="utf-8"?>
<!-- Generator: Adobe Illustrator 16.0.3, SVG Export Plug-In . SVG Version: 6.00 Build 0)  -->
<svg xmlns="http://www.w3.org/2000/svg" width="960px" height="560px">
	<path fill="#1A43A0" stroke="#BFBFBF" stroke-width="4" d="M385.196,187.078c0,0-2.958,9.933,0.421,14.793
		c3.381,4.859,49.863,3.592,49.863,3.592l-22.603-20.499L385.196,187.078z"/>
	<path fill="#1A43A0" stroke="#BFBFBF" stroke-width="4" d="M19.719,141.235c0,0,239.05,64.359,468.907,64.359
		s430.597-102.67,438.261-107.267c7.66-4.598,26.049,78.15,1.534,96.54c-24.521,18.389-162.433,98.074-433.663,98.074
		c-271.233,0-467.375-42.908-481.169-58.232C-0.203,219.386-0.203,158.091,19.719,141.235z"/>
	<path fill="#1A43A0" stroke="#BFBFBF" stroke-width="4" d="M505.482,348.106c0,0-44.439-12.259-56.699-42.907
		c-12.257-30.646,117.993-59.762,117.993-59.762l-12.259,62.828L505.482,348.106z"/>
	<path fill="#1A43A0" stroke="#BFBFBF" stroke-width="4" d="M392.086,300.601c0,0,61.297,42.907,70.489,38.311
		c9.194-4.598,117.993-73.554,117.993-73.554l-91.942-67.426l-101.137,76.62L392.086,300.601z"/>
	<path fill="#1A43A0" stroke="#BFBFBF" stroke-width="4" d="M45.768,400.207c0,0,251.309-153.236,403.016-214.532
		c151.707-61.297,61.297,58.229,61.297,58.229s-157.834,76.618-222.196,114.928c-64.361,38.311-163.964,101.14-176.223,102.672
		C99.402,463.034,45.768,400.207,45.768,400.207z"/>
	<path fill="#1A43A0" stroke="#BFBFBF" stroke-width="4" d="M465.64,151.961c0,0,190.015,99.605,255.908,121.059
		C787.439,294.474,949.869,366.494,956,384.883c6.132,18.39-55.164,61.295-55.164,61.295s-47.507-42.905-108.799-68.956
		c-61.297-26.05-167.029-68.957-225.261-96.54c-58.229-27.581-179.29-95.007-179.29-95.007L465.64,151.961z"/>
	<path fill="#1A43A0" stroke="#BFBFBF" stroke-width="4" d="M513.411,149.468c0,0-10.61-3.712-28.374,16.97
		c-17.765,20.683,30.228,16.44,30.228,16.44L513.411,149.468z"/>
	<path fill="#1A43A0" stroke="#BFBFBF" stroke-width="4" d="M465.64,151.961c0,0,190.015,99.605,255.908,121.059
		C787.439,294.474,949.869,366.494,956,384.883c6.132,18.39-55.164,61.295-55.164,61.295s-47.507-42.905-108.799-68.956
		c-61.297-26.05-167.029-68.957-225.261-96.54c-58.229-27.581-179.29-95.007-179.29-95.007L465.64,151.961z"/>
	<path fill="#1A43A0" stroke="#BFBFBF" stroke-width="4" d="M513.145,150.429c0,0-4.598,185.418-9.194,194.612
		c-4.6,9.194,85.813-26.049,87.343-36.776c1.535-10.729,13.794-101.137,4.6-110.331S522.337,145.832,513.145,150.429z"/>
</svg>